<svg xmlns="http://www.w3.org/2000/svg" viewBox="0 0 1440 320">
  <path fill="#fff2f2" d="M0,160L48,144C96,128,192,96,288,90.7C384,85,480,107,576,113.3C672,120,768,101,864,101.3C960,101,1056,128,1152,133.3C1248,139,1344,117,1392,106.7L1440,96L1440,320L1392,320C1344,320,1248,320,1152,320C1056,320,960,320,864,320C768,320,672,320,576,320C480,320,384,320,288,320C192,320,96,320,48,320L0,320Z"/>
  <path fill="#fff2f2" d="M0,320L48,288C96,256,192,192,288,170.7C384,149,480,160,576,186.7C672,213,768,256,864,256C960,256,1056,213,1152,186.7C1248,160,1344,149,1392,170.7L1440,192L1440,320L1392,320C1344,320,1248,320,1152,320C1056,320,960,320,864,320C768,320,672,320,576,320C480,320,384,320,288,320C192,320,96,320,48,320L0,320Z"/>
</svg>




